<svg width="20" height="20" viewBox="0 0 20 20" fill="none" xmlns="http://www.w3.org/2000/svg">
<circle cx="10" cy="10" r="10" fill="white"/>
<path d="M15.5681 7.30435C15.4311 6.78947 15.0286 6.38616 14.5234 6.24886C13.5987 6 9.90818 6 9.90818 6C9.90818 6 6.20915 6 5.29295 6.24886C4.78776 6.38616 4.38532 6.78947 4.24832 7.30435C4 8.23112 4 10.1705 4 10.1705C4 10.1705 4 12.1098 4.24832 13.0366C4.38532 13.5515 4.78776 13.9548 5.29295 14.0921C6.21771 14.341 9.90818 14.341 9.90818 14.341C9.90818 14.341 13.6072 14.341 14.5234 14.0921C15.0286 13.9548 15.4311 13.5515 15.5681 13.0366C15.8164 12.1098 15.8164 10.1705 15.8164 10.1705C15.8164 10.1705 15.8164 8.23112 15.5681 7.30435ZM8.70086 11.9296V8.41133L11.792 10.1705L8.70086 11.9296Z" fill="#323232"/>
</svg>
