<svg width="20" height="20" viewBox="0 0 20 20" fill="none" xmlns="http://www.w3.org/2000/svg">
<circle cx="10" cy="10" r="10" fill="white"/>
<path d="M14.0264 5C15.1755 5 16.1152 5.93978 16.1152 7.08887V12.1318C16.1152 13.277 15.1794 14.2168 14.0303 14.2168H11.1318L10.6387 15.0703L10.1523 15.9111C10.0615 16.0649 9.84084 16.0649 9.75391 15.9111L9.26758 15.0703L8.77441 14.2168H5.90723C4.76207 14.2167 3.82227 13.281 3.82227 12.1318V7.08496C3.82232 5.93984 4.75815 5.00005 5.90723 5H14.0264ZM13.0078 8.69922C12.4273 8.69922 11.957 9.18495 11.957 9.78125C11.957 10.3775 12.4273 10.8633 13.0078 10.8633C13.2485 10.8632 13.4699 10.7807 13.6436 10.6426V10.9424C13.6424 10.9477 13.576 11.2383 13.1377 11.2383V11.7949C13.1377 11.7949 13.6155 11.8503 14.042 11.4238C14.0454 11.4202 14.2401 11.2124 14.2832 10.9385V8.74219H13.6436V8.91992C13.4659 8.78179 13.2446 8.6993 13.0078 8.69922ZM5.6543 10.8877H6.28613V10.6855C6.46379 10.8435 6.6888 10.9423 6.9375 10.9424C7.50218 10.9424 7.9609 10.4412 7.96094 9.82129C7.96094 9.2013 7.50615 8.69531 6.9375 8.69531C6.69281 8.69537 6.46377 8.79036 6.28613 8.95215V8.02441H5.6543V10.8877ZM10.5361 8.69531C9.90839 8.69531 9.39867 9.19661 9.39844 9.81641C9.39844 10.4364 9.90825 10.9385 10.5361 10.9385C11.1638 10.9383 11.6729 10.4363 11.6729 9.81641C11.6726 9.19674 11.1676 8.69552 10.5361 8.69531ZM8.03125 7.96875V8.54199C8.03551 8.54258 8.32394 8.58318 8.37891 8.86523V10.8877H9.03027V8.84961C8.99175 8.5724 8.82936 8.36281 8.82129 8.35254C8.4521 7.91658 8.03575 7.96817 8.03125 7.96875ZM6.81152 9.25684C7.12736 9.25693 7.37988 9.50547 7.37988 9.81738C7.37981 10.1292 7.12732 10.3778 6.81152 10.3779C6.57853 10.3779 6.37692 10.2395 6.29004 10.0381C6.26247 9.97106 6.24319 9.8962 6.24316 9.81738C6.24316 9.7384 6.25845 9.66284 6.29004 9.5957C6.37699 9.39448 6.57866 9.25684 6.81152 9.25684ZM10.5361 9.2793C10.8359 9.27951 11.0808 9.52055 11.0811 9.81641C11.0811 10.1125 10.84 10.3533 10.5361 10.3535C10.236 10.3535 9.99121 10.1126 9.99121 9.81641C9.99144 9.52042 10.2362 9.2793 10.5361 9.2793ZM13.126 9.22461C13.351 9.22463 13.5488 9.35061 13.6436 9.53223C13.683 9.60726 13.7021 9.69047 13.7021 9.77734C13.7021 9.8642 13.6791 9.95139 13.6436 10.0225C13.5488 10.208 13.351 10.3301 13.126 10.3301C12.8061 10.3301 12.5498 10.0814 12.5498 9.77734C12.5498 9.47327 12.8101 9.22461 13.126 9.22461Z" fill="#323232"/>
</svg>
