<svg width="20" height="20" viewBox="0 0 20 20" fill="none" xmlns="http://www.w3.org/2000/svg">
<circle cx="10" cy="10" r="10" fill="white"/>
<path d="M10.0017 5.08133C11.6046 5.08133 11.7928 5.08847 12.4263 5.11706C13.0122 5.14326 13.329 5.24091 13.541 5.32427C13.8221 5.43383 14.0221 5.56245 14.2317 5.77205C14.4413 5.98164 14.5723 6.18171 14.6795 6.46276C14.7605 6.67474 14.8605 6.99152 14.8867 7.57744C14.9153 8.21099 14.9224 8.39915 14.9224 10.0021C14.9224 11.605 14.9153 11.7932 14.8867 12.4267C14.8605 13.0127 14.7629 13.3294 14.6795 13.5414C14.5699 13.8225 14.4413 14.0225 14.2317 14.2321C14.0221 14.4417 13.8221 14.5727 13.541 14.6799C13.329 14.7609 13.0122 14.8609 12.4263 14.8871C11.7928 14.9157 11.6046 14.9229 10.0017 14.9229C8.39873 14.9229 8.21057 14.9157 7.57701 14.8871C6.99109 14.8609 6.67432 14.7633 6.46234 14.6799C6.18129 14.5704 5.98122 14.4417 5.77162 14.2321C5.56202 14.0225 5.43102 13.8225 5.32384 13.5414C5.24286 13.3294 5.14283 13.0127 5.11663 12.4267C5.08805 11.7932 5.0809 11.605 5.0809 10.0021C5.0809 8.39915 5.08805 8.21099 5.11663 7.57744C5.14283 6.99152 5.24048 6.67474 5.32384 6.46276C5.43341 6.18171 5.56202 5.98164 5.77162 5.77205C5.98122 5.56245 6.18129 5.43145 6.46234 5.32427C6.67432 5.24329 6.99109 5.14326 7.57701 5.11706C8.21057 5.08609 8.40111 5.08133 10.0017 5.08133ZM10.0017 4C8.37253 4 8.1677 4.00715 7.527 4.03573C6.88868 4.06431 6.45281 4.16672 6.07172 4.3144C5.67635 4.46683 5.3429 4.67404 5.00945 5.00749C4.676 5.34094 4.47116 5.67678 4.31635 6.06977C4.16868 6.45086 4.06626 6.88672 4.03768 7.52742C4.0091 8.16574 4.00195 8.37057 4.00195 9.99971C4.00195 11.6289 4.0091 11.8337 4.03768 12.4744C4.06626 13.1127 4.16868 13.5486 4.31635 13.932C4.46878 14.3274 4.676 14.6609 5.00945 14.9943C5.3429 15.3278 5.67873 15.5326 6.07172 15.6874C6.45281 15.8351 6.88868 15.9375 7.52938 15.9661C8.17008 15.9947 8.37253 16.0018 10.0041 16.0018C11.6356 16.0018 11.838 15.9947 12.4787 15.9661C13.117 15.9375 13.5529 15.8351 13.9364 15.6874C14.3318 15.535 14.6652 15.3278 14.9987 14.9943C15.3321 14.6609 15.5369 14.325 15.6918 13.932C15.8394 13.551 15.9418 13.1151 15.9704 12.4744C15.999 11.8337 16.0062 11.6312 16.0062 9.99971C16.0062 8.36819 15.999 8.16574 15.9704 7.52504C15.9418 6.88672 15.8394 6.45086 15.6918 6.06739C15.5393 5.67201 15.3321 5.33856 14.9987 5.00511C14.6652 4.67166 14.3294 4.46683 13.9364 4.31201C13.5553 4.16434 13.1194 4.06193 12.4787 4.03334C11.8356 4.00715 11.6308 4 10.0017 4Z" fill="#323232"/>
<path d="M10 6.91992C8.2994 6.91992 6.91797 8.29897 6.91797 10.0019C6.91797 11.7049 8.29702 13.084 10 13.084C11.703 13.084 13.082 11.7049 13.082 10.0019C13.082 8.29897 11.703 6.91992 10 6.91992ZM10 12.0003C8.89485 12.0003 7.9993 11.1047 7.9993 9.99957C7.9993 8.89442 8.89485 7.99887 10 7.99887C11.1051 7.99887 12.0007 8.89442 12.0007 9.99957C12.0007 11.1047 11.1051 12.0003 10 12.0003Z" fill="#323232"/>
<path d="M13.2056 7.51575C13.6029 7.51575 13.9249 7.1937 13.9249 6.79645C13.9249 6.39919 13.6029 6.07715 13.2056 6.07715C12.8084 6.07715 12.4863 6.39919 12.4863 6.79645C12.4863 7.1937 12.8084 7.51575 13.2056 7.51575Z" fill="#323232"/>
</svg>
