<svg width="14" height="15" viewBox="0 0 14 15" fill="none" xmlns="http://www.w3.org/2000/svg">
<g clip-path="url(#clip0_1944_1279)">
<path d="M10 13.5V14.5H4V13.5H10ZM13 10.5V4.5C13 2.89489 11.7394 1.58421 10.1543 1.50391L10 1.5H4C2.39489 1.5 1.08421 2.76056 1.00391 4.3457L1 4.5V10.5C1 12.1569 2.34315 13.5 4 13.5V14.5L3.79395 14.4951C1.7488 14.3913 0.108652 12.7512 0.00488281 10.7061L0 10.5V4.5C0 2.29086 1.79086 0.5 4 0.5H10C12.2091 0.5 14 2.29086 14 4.5V10.5C14 12.64 12.3194 14.3879 10.2061 14.4951L10 14.5V13.5C11.6569 13.5 13 12.1569 13 10.5Z" fill="#FF6868"/>
<path d="M4 10.5V4.5H5.68696L8.78261 8.15143H8V4.5H10V10.5H8.31304L5.21739 6.84857H6V10.5H4Z" fill="#FF6868"/>
</g>
<defs>
<clipPath id="clip0_1944_1279">
<rect width="14" height="14" fill="white" transform="translate(0 0.5)"/>
</clipPath>
</defs>
</svg>
