<svg width="21" height="24" viewBox="0 0 21 24" fill="none" xmlns="http://www.w3.org/2000/svg">
<path d="M12.2002 0.599866C12.5298 0.352941 13 0.588332 13 1.00026V3.30104C17.5918 4.42272 21 8.56289 21 13.5003C20.9999 19.2992 16.2989 24.0003 10.5 24.0003C4.70106 24.0003 8.51399e-05 19.2992 0 13.5003C0 12.9732 0.427125 12.5454 0.954102 12.5452C1.48128 12.5452 1.90918 12.9731 1.90918 13.5003C1.90926 18.2448 5.75542 22.0911 10.5 22.0911C15.2446 22.0911 19.0907 18.2448 19.0908 13.5003C19.0908 9.62528 16.5251 6.35021 13 5.27955V8.00026C12.9999 8.41218 12.5298 8.64685 12.2002 8.39967L7.5332 4.89967C7.26682 4.6996 7.26663 4.29979 7.5332 4.09987L12.2002 0.599866Z" fill="white"/>
</svg>
